<svg xmlns="http://www.w3.org/2000/svg" x="0px" y="0px" width="100" height="100" viewBox="0,0,256,256">
<g fill="none" fill-rule="nonzero" stroke="none" stroke-width="1" stroke-linecap="butt" stroke-linejoin="miter" stroke-miterlimit="10" stroke-dasharray="" stroke-dashoffset="0" font-family="none" font-weight="none" font-size="none" text-anchor="none" style="mix-blend-mode: normal"><g transform="scale(6.4,6.4)"><path d="M2.5,2.5h35v35h-35z" fill="#ffffff"></path><path d="M37,3v34h-34v-34h34M38,2h-36v36h36v-36z" fill="#ffffff"></path><path d="M8,16.077h5.538v11.008v4.915h-5.538zM10.769,14.462v0c-1.661,0 -2.769,-1.177 -2.769,-2.631c0,-1.454 1.108,-2.562 2.769,-2.562c1.661,0 2.7,1.108 2.769,2.562c0,1.454 -1.038,2.631 -2.769,2.631zM32.027,32h-5.468c0,0 0,-8.27 0,-8.885c0,-0.615 -0.068,-2.734 -2.392,-2.734c-2.05,0 -2.392,1.982 -2.392,2.734c0,0.752 0,8.885 0,8.885h-5.468v-15.719h5.468v2.119c0,0 1.094,-2.119 4.306,-2.119c3.281,0 5.946,2.255 5.946,6.834z" fill="#0058a4"></path></g></g>
</svg>