    <svg xmlns="http://www.w3.org/2000/svg" version="1.1" viewBox="0 0 1854 2048" width="1280" height="1280">
    <path transform="translate(1220,840)" d="m0 0h3v722l-3 28-5 29-7 29-8 27-10 29-11 25-12 25-14 25-13 21-14 20-13 17-11 14-12 14-12 13-34 34-11 9-9 8-14 11-20 15-15 10-21 13-23 13-32 16-27 11-36 12-31 8-26 5-23 3-29 2h-27l-28-2-32-5-25-6-26-8-27-11-10-5 3-3 16-8 15-8 17-11 16-12 13-11 17-17 11-14 10-14 9-15 10-19 11-28 8-28 6-30 4-31 2-24 1-23v-52l-2-49-6-101-2-49v-49l2-35 4-31 6-31 8-32 10-32 13-34 11-24 12-24 16-27 18-27 12-16 8-10 9-11 9-10 7-8 12-13 18-18 8-7 12-11 11-9 17-14 16-12 17-12 30-20 21-13 23-13 24-13 33-17 33-15 33-14 33-13z" fill="#136AB5"/>
    <path transform="translate(936,175)" d="m0 0h46l28 3 29 6 24 7 24 9 25 12 18 10 21 14 13 10 13 11 12 11 14 14 9 11 10 12 12 17 12 20 6 11v2l9-6 11-8 2 3 9 36-2 4-11 8 3 11 7 25 5 26 3 27v46l-3 27-5 26-7 25-8 22-9 20-13 25-16 24-10 13-9 11-12 13-17 17-11 9-15 12-23 15-18 10-16 8-21 9-24 8-30 7-27 4-12 1h-46l-27-3-26-5-22-6-20-7-19-8-16-8-18-10-21-14-16-12-11-10-8-7-18-18-9-11-12-15-14-21-10-17-11-22-6-14-8-12 1-4h2l-6-18-6-26-4-27-1-13v-42l3-28 5-26 7-25 10-28 14-29 13-22 12-17 11-14 9-10 7-8 15-15 8-7 17-14 24-16 21-12 27-13 28-10 26-7 21-4z" fill="#ED990D"/>
    <path transform="translate(1282,959)" d="m0 0 5 5 28 40 24 34 16 23 24 34 14 20 16 23 24 34 16 23 14 20 13 18 11 16 16 23 24 34 28 40 12 17 42 60 12 17 28 40 12 17 42 60 24 34 16 23 24 34 14 20 16 23 24 34 16 23 14 20 2 4h-632l2-5 14-29 12-30 12-36 7-25 6-27 5-32 2-18z" fill="#ED990D"/>
    <path transform="translate(684,1238)" d="m0 0 1 3-9 27-9 34-7 35-4 27-2 21-1 17v79l4 76 4 70 1 26v65l-2 32-2 19-1 3h-656l5-5 16-13 17-13 15-12 13-10 18-14 14-11 54-42 28-22 18-14 13-10 28-22 36-28 14-11 54-42 28-22 13-10 18-14 28-22 18-14 13-10 28-22 54-42 14-11 36-28 28-22 18-14 13-10 28-22z" fill="#ED990D"/>
    <path transform="translate(1283,960)" d="m0 0 5 5 13 19 14 20 24 34 16 23 24 34 14 20 16 23 24 34 16 23 14 20 13 18 11 16 16 23 24 34 28 40 12 17v3l-1 1-8-1-40-14-80-27-17-5-50-17-43-15-41-14-3-3-1-53z" fill="#D87C17"/>
    <path transform="translate(1220,840)" d="m0 0h2v270l-15 10-12 7-20 13-25 16-13 9-13 8-14 8-17 12-4-1-1-17 1-27 3-32 6-35 7-30 9-31 11-31 12-29 4-9-4-4-23-12-20-11-24-12-1-4 7-6 22-11 33-15 33-14 33-13z" fill="#274B9B"/>
    <path transform="translate(1216,1567)" d="m0 0 5 2 1 4-4 30-7 34-9 32-12 35-11 25-12 25-14 25-13 21-1 1-21 2h-56l-27-3-31-6-25-7-28-10-18-8-3-2v-2l16-8 15-8 19-12 12-9 10-8 10-9 12-12 9-11 10-12 14-7 40-26 15-10 16-10 14-8 14-10 16-10 23-15 11-7z" fill="#0288CD"/>
    <path transform="translate(944,301)" d="m0 0h30v44h30v26l-3 267-1 33h-28v36h-26l-1-35-27-1-1-7-3-265v-54h30z" fill="#FDFDFD"/>
    <path transform="translate(936,175)" d="m0 0h46l28 3 29 6 21 6-2 2-9-2-11 3-37 18-16 8-15 7-16 7-19 10-23 11-38 19-15 6-15 8-23 11-38 19-20 9-23 11-33 16-15 8-23 11-8 4-4 6-4 8-2 3-2-1 10-25 12-24 13-21 13-18 9-11 12-14 18-18 8-7 17-14 24-16 21-12 27-13 28-10 26-7 21-4z" fill="#F8B409"/>
    <path transform="translate(1044,316)" d="m0 0h24l-1 25h21l-3 80v8l21-16 20-15 11-8 4 2 14 10 17 12 5-2 18-14 38-28 21-16 18-13 2 3 9 36-2 4-18 13-21 16-38 28-21 16-8 6-5-1-13-10-17-12-4-1-19 13-23 16-11 8-3 74-1 3h-19v17l-1 5h-21v-22h-19v-28l3-156 1-28h21z" fill="#FDFDFD"/>
    <path transform="translate(850,410)" d="m0 0h24v25h20l1 1 1 33 3 159v19h-19v22h-21l-1-1v-21h-19l-1-5-1-25v-20l-14 8-19 12-25 15-4-2-12-14-13-15-6-7-12 7-23 15-18 11-25 16h-3l-6-10-2-1-5-10-6-9 1-4 18-11 15-10 24-15 44-28 6-3 24 28 9 11 8-4 22-14 19-12-1-38-2-52v-26h20l-1-13z" fill="#FCFCFC"/>
    <path transform="translate(943,301)" d="m0 0h1v44h-30v25h-1l-1-11h-2v-13l4-4 3-1 22-1v-15l-12 5-23 11-19 10-31 15-16 8-16 7-17 8-17 9-23 11-30 15-15 6-23 12-23 11-36 18h-2l-1-5 15-8 16-8 41-20 8-4 16-7 25-12 15-8 23-11 24-12 21-9 23-12 23-11 17-8 19-10 13-5 6-4 1-1 1-13z" fill="#F8B40A"/>
    <path transform="translate(684,836)" d="m0 0 7 1 3 3 1 6-4 7-12 14-9 11-14 17-11 14-4 3-5 1-5-3-2-3v-6l10-13 12-14 8-10 18-22 5-5z" fill="#D7B56E"/>
    <path transform="translate(1381,575)" d="m0 0 16 2 65 11 5 6-1 7-5 4-12-1-70-12-4-4-1-7 4-5z" fill="#D7B56E"/>
    <path transform="translate(527,546)" d="m0 0h7l4 2 2 3v7l-5 5-49 5-20 2h-15l-4-5v-6l4-5 14-2z" fill="#D7B56E"/>
    <path transform="translate(1430,327)" d="m0 0h6l5 5v7l-3 4-74 28h-6l-5-5v-7l5-5 67-25z" fill="#D7B56E"/>
    <path transform="translate(1349,682)" d="m0 0 9 3 66 30 4 4v7l-5 5h-7l-70-32-4-4-1-5 3-6z" fill="#D7B56E"/>
    <path transform="translate(780,30)" d="m0 0 6 1 4 5 23 62 4 11-1 6-4 4h-7l-5-5-25-67-2-5v-6l4-5z" fill="#D7B56E"/>
    <path transform="translate(565,183)" d="m0 0h7l11 9 13 11 10 8 17 14 11 9 2 3v6l-4 5h-8l-9-7-17-14-22-18-13-11-3-4v-6z" fill="#D7B56E"/>
    <path transform="translate(1040,5)" d="m0 0 7 1 3 3 1 6-13 78-6 5-7-1-4-5 1-11 12-71z" fill="#D7B56E"/>
    <path transform="translate(608,754)" d="m0 0 6 1 4 5v6l-5 5-15 11-17 12-18 13-13 9-8-1-3-4v-7l5-5 16-12 19-13 15-11 11-8z" fill="#D7B56E"/>
    <path transform="translate(777,896)" d="m0 0h8l4 4 1 6-15 33-16 35-3 6-3 2h-7l-5-5v-6l17-37 13-29 5-8z" fill="#D7B56E"/>
    <path transform="translate(459,421)" d="m0 0 39 6 41 7 4 4 1 7-4 5-2 1-12-1-70-12-4-4-1-5 3-6z" fill="#D7B56E"/>
    <path transform="translate(1370,210)" d="m0 0 6 2 3 3v8l-7 6-17 12-36 26-8 5-7-1-4-4v-7l5-5 18-13 17-12 18-13 9-6z" fill="#D7B56E"/>
    <path transform="translate(1165,44)" d="m0 0h7l5 5-1 9-15 32-16 36-4 4h-8l-4-4-1-5 11-25 19-42 4-8z" fill="#D7B56E"/>
    <path transform="translate(907,1)" d="m0 0h7l4 4 2 13 6 61v9l-4 5-7 1-5-4-2-10-6-63v-11z" fill="#D7B56E"/>
    <path transform="translate(1277,114)" d="m0 0h7l5 5v7l-11 13-11 14-12 14-11 14-7 8-7 1-5-3-1-2v-7l7-9 27-33 11-13 7-8z" fill="#D7B56E"/>
    <path transform="translate(661,93)" d="m0 0h8l7 8 13 19 12 16 13 19 4 6-1 7-5 4-7-1-7-8-13-19-12-16-12-17-4-6-1-5 2-5z" fill="#D7B56E"/>
    <path transform="translate(495,295)" d="m0 0 9 1 32 15 36 16 4 4 1 5-3 6-7 2-25-11-35-16-15-7-2-4v-6z" fill="#D7B56E"/>
    <path transform="translate(556,655)" d="m0 0 7 2 2 3v7l-5 5-69 26-9 1-5-4v-8l4-4 18-7 53-20z" fill="#D7B56E"/>
    <path transform="translate(1456,456)" d="m0 0h10l5 5v7l-4 4-2 1-72 7h-10l-4-4-1-7 4-5 12-2z" fill="#D7B56E"/>
    <path transform="translate(4,1768)" d="m0 0 1 2h651l1 2h-656z" fill="#E7B43B"/>
    <path transform="translate(571 2e3)" d="m0 0 16 8 28 15 26 13 2 2 5 2 17 3 1 2-26-4-25-6-26-8-27-11-10-5 3-3z" fill="#0288CD"/>
    <path transform="translate(1126,227)" d="m0 0h7v3l-16 8-25 13-23 11-19 9-10 5-20 9-40 20h-2v-2h-3v-2l16-8 23-12 25-11 36-18 23-11 16-8z" fill="#F9B409"/>
    </svg>