<svg xmlns="http://www.w3.org/2000/svg" version="1.1" viewBox="0 0 2048 1739" width="60" height="60">
<path transform="translate(979,201)" d="m0 0h29l47 2 38 3 50 6 43 7 41 9 31 8 43 13 29 10 28 11 25 11 25 12 20 11 13 9 2 5v468l-1 37-3 26-5 26-7 26-9 26-11 24-8 16-9 16-16 24-12 16-22 26-32 32-8 7-14 12-9 7-16 12-39 26-14 9-15 9-15 6-28 8-48 12-28 5-1-2-1-10 18-11v-4l-1-3-3-1-3-5v-6l-13 2-30 11-40 15-10-2-17-5-12-3h-8l-7 1-4-1-6 1-3 5 1 4 8 6v2l6 2 9 5 5 5-1 8 3 5v2l10 3 19 2h19l48-4 39-6 38-8 45-12 57-17 32-10 96-32 43-13 42-11 37-8 33-5 32-3h21l22 2 25 4 22 6 22 9 14 8v19l-2 28-2 46-3 49-3 47-1 11-4 1-16-7-21-6-17-3-14-1h-23l-29 2-32 5-39 9-49 14-51 16-41 14-80 27-40 13-41 12-38 10-40 9-35 6-36 4-11 1h-43l-40-4-36-6-37-8-46-12-43-13-111-37-43-15-64-20-44-12-37-8-34-5-25-2h-23l-22 2-22 5-19 7-6 2-2-7-3-30-3-60-3-63-2-27v-13l8-5 17-8 21-7 22-5 22-3 13-1h19l34 3 29 4 34 7 32 8 28 8 33 10 49 16 50 16 40 13 29 8 38 9 11 2-2-1-2-7 5-3 5-2-23-8-29-17-17-11-39-26-18-13-17-14-13-11-13-12-12-11-9-9-7-8-9-10-9-11-14-18-14-21-12-21-11-21-11-27-9-27-7-30-4-27-1-25v-488l2-4 16-10 22-12 28-13 37-15 36-13 39-12 52-13 37-7 44-7 34-4 41-3z" fill="#075F86"/>
<path transform="translate(407,1091)" d="m0 0h19l34 3 29 4 34 7 32 8 28 8 33 10 49 16 50 16 40 13 29 8 8 2v2l9 2 32 9 43 10 34 6 41 5 11 1h26l37-2 35-3 39-6 38-8 45-12 57-17 32-10 96-32 43-13 42-11 37-8 33-5 32-3h21l22 2 25 4 22 6 22 9 14 8v19l-2 28-2 46-3 49-3 47-1 11-4 1-16-7-21-6-17-3-14-1h-23l-29 2-32 5-39 9-49 14-51 16-41 14-80 27-40 13-41 12-38 10-40 9-35 6-36 4-11 1h-43l-40-4-36-6-37-8-46-12-43-13-111-37-43-15-64-20-44-12-37-8-34-5-25-2h-23l-22 2-22 5-19 7-6 2-2-7-3-30-3-60-3-63-2-27v-13l8-5 17-8 21-7 22-5 22-3z" fill="#075F86"/>
<path transform="translate(979,201)" d="m0 0h29l47 2 38 3 50 6 43 7 41 9 31 8 43 13 29 10 28 11 25 11 25 12 20 11 13 9 2 5v468l-1 37-3 26-5 26-7 26-9 26-11 24-8 16-9 16-16 24-12 16-22 26-32 32-8 7-14 12-9 7-16 12-39 26-14 9-15 9-15 6-28 8-48 12-28 5-1-2-1-10 18-11v-4l-1-3-3-1-3-5v-6l-13 2-14 5-3-1 16-8 36-17 26-13 23-13 23-14 15-10 17-12 18-14 13-11 10-9 12-11 13-13 7-8 12-14 12-16 10-15 12-20 10-19 11-27 9-29 6-28 3-23 1-448-6-2-14-8-17-9-26-12-27-11-34-12-30-9-36-9-35-7-39-6-38-4-30-2-30-1h-27l-30 1-42 3-41 5-41 7-39 9-29 8-26 8-22 8-28 11-34 16-24 13-6 4-1 60v340l1 48 4 27 6 25 9 27 10 23 12 23 12 19 10 14 11 14 9 10 7 8 9 10 8 8 8 7 13 12 14 11 15 12 16 11 15 10 19 12 28 16 35 18 32 15 33 14 29 11 9 4v1l-8-1-11-4-10-2h-8l-7 1-4-1-6 1-3 5 1 4 8 6v2l6 2 9 5 5 5-1 8 3 5v2l10 3 19 2v1l-5 1h-26l-38-4-38-6-41-9-34-9-19-6 4-1 35 8h2l-2-1-2-7 5-3 5-2-23-8-29-17-17-11-39-26-18-13-17-14-13-11-13-12-12-11-9-9-7-8-9-10-9-11-14-18-14-21-12-21-11-21-11-27-9-27-7-30-4-27-1-25v-488l2-4 16-10 22-12 28-13 37-15 36-13 39-12 52-13 37-7 44-7 34-4 41-3z" fill="#DBDCDC"/>
<path transform="translate(975,458)" d="m0 0h32l22 3 21 5 22 8 23 12 11 7 13 10 14 12 8 8 7 8 10 13 10 16 8 16 8 20 6 23 3 19 1 24-2 20-5 22-9 25-11 24-12 24-12 22-16 29-17 33-10 22-8 21-7 24-4 22-9 84-1 10-4 3-22 5-13 1-1-1v-11l9-89 5-37 6-29 7-26 11-32 13-31 19-40 14-32 10-27 5-19 1-7-3-7-8-7-2-1-19-1-1-2-2-12-2-5-5-2h-7l-8 2h-6l-2 13 17-3 3 2 1 12 3 5 5 2 11 1-1 8-8 26-12 29-13 29-8 16-11 25-10 25-10 30-9 36-6 34-4 30-2 2h-40l-2-1-5-38-5-28-9-36-12-35-11-26-13-28-14-30-12-29-9-27-2-7v-5l13-1 5-2 4-8 1-11 11 2 8 1-1-12-15-3h-7l-6 4-2 7-2 10-18 1-9 5-5 4-2 8 5 19 8 24 12 28 14 30 15 33 13 33 9 29 7 29 6 35 6 39 12 66 2 10v6h-8l-18-6-6-4-5-17-15-67-6-20-20-53-11-25-30-60-9-17-11-23-13-29-10-26-6-21-3-16v-33l4-25 5-18 9-22 9-17 11-16 8-10 11-12 9-9 17-13 18-12 16-8 14-6 19-6 25-5z" fill="#FBFBFB"/>
<path transform="translate(971,240)" d="m0 0h46l44 2 46 4 38 5 30 5 25 5 39 9 41 12 21 7 24 9 29 12 18 8 17 9 14 7 2 2v464l-1 24-4 29-6 25-8 26-10 24-8 16-9 17-13 21-13 18-11 13-9 11-10 10-7 8-8 7-8 8-8 7-13 11-17 13-18 13-18 12-19 12-18 11-11 6-35 18-24 11-11 4-3-1 6-4-2-6-3-1-3-5v-6l-13 2-14 5-3-1 16-8 36-17 26-13 23-13 23-14 15-10 17-12 18-14 13-11 10-9 12-11 13-13 7-8 12-14 12-16 10-15 12-20 10-19 11-27 9-29 6-28 3-23 1-448-6-2-14-8-17-9-26-12-27-11-34-12-30-9-36-9-35-7-39-6-38-4-30-2-30-1h-27l-30 1-42 3-41 5-41 7-39 9-29 8-26 8-22 8-28 11-34 16-24 13-6 4-1 60v340l1 48 4 27 6 25 9 27 10 23 12 23 12 19 10 14 11 14 9 10 7 8 9 10 8 8 8 7 13 12 14 11 15 12 16 11 15 10 19 12 28 16 35 18 32 15 33 14 29 11 9 4v1l-8-1-11-4-10-2h-8l-7 1-4-1-6 1-3 5 1 4 8 6v2l6 2 1 2h-5l-9-4-13-5-35-16-25-12-17-9-16-8-21-12-26-16-15-10-20-14-13-10-10-8-13-11-8-7-13-12-15-15-7-8-8-9v-2h-2l-13-17-12-17-15-25-8-16-8-17-9-25-7-24-4-21-2-18-2-38-1-96v-221l1-103 1-30 3-3 48-23 29-12 17-6 36-12 31-9 24-6 32-7 41-7 29-4 54-5z" fill="#FBFBFB"/>
<path transform="translate(285,1218)" d="m0 0h3l2 24 2 37 2 43 1 10 1 22 3 9 6 10 8 7 16 8 16 3 151 1 2 2v43l-2 5-6 4h-10l-18-3-40-10-56-17-32-9-32-6-27-3-15-1h-25l-27 3-26 5-23 7h-3l3-11 13-30 10-19 10-18 12-19 11-16 14-19 9-11 12-14 7-8 14-15z" fill="#085F86"/>
<path transform="translate(1696,1218)" d="m0 0 4 2 13 12 15 16 9 10 9 11 13 16 13 19 8 11 15 25 10 18 11 22 10 24 2 7-9-1-23-6-21-4-18-2-15-1h-24l-31 3-28 5-40 10-42 13-35 10-26 6-12 2h-11l-6-5-1-3v-45l1-1 149-1 17-3 13-5 12-9 6-9 3-9 1-8 2-38 3-52 2-38z" fill="#085F86"/>
<path transform="translate(387,1324)" d="m0 0h20l25 2 27 4 29 6 9 3 1 3v34h-10l-26-2-20-1-83-1-16-2-12-4-8-6-4-5-2-4 1-6 16-9 16-6 18-4z" fill="#085F86"/>
<path transform="translate(1574,1324)" d="m0 0h19l22 2 18 4 16 6 13 7 5 4-1 7-7 8-8 5-15 4-11 1-86 1-30 2-11 1h-11l-1-1v-35l1-2 26-6 29-5 17-2z" fill="#096086"/>
<path transform="translate(985,553)" d="m0 0h13l1 26h12v42l-4 88-1 16-10 1v10l-1 1h-7v-9l-1-2-9-2-3-57-3-67v-20l13-2z" fill="#D8B36F"/>
<path transform="translate(473,1154)" d="m0 0h17v99l-3 3h-10l-3-3-1-2-4 1-6 4-4 1h-8l-8-4-4-7-1-8v-46l3-7 4-5 4-2 23-1z" fill="#D8B473"/>
<path transform="translate(1390,1191)" d="m0 0 6 1 4 6 1 3 1 27v37l-4 3-12 3-1-1v-53l-1-2-9 3-3 2-1 5-1 51-10 4h-6v-55l-9 3-4 2-1 3-1 53-11 4h-5v-76l8-3h6l3 1 5-3 8-6 4-2 6 1 4 2 4-1 9-8z" fill="#D8B472"/>
<path transform="translate(1448,1179)" d="m0 0 7 1 4 4 3 8v48l-4 11-4 5-13 4-14 2v24l-3 2-12 2-1-1v-101l5-2h8l2 2 5-1 5-4 6-3z" fill="#D8B471"/>
<path transform="translate(746,1249)" d="m0 0 6 1 16 6 12 5 6 7 3 9 1 11v39l-2 8-5 5-8-1-17-6-10-5-6-7-3-12-1-20v-16l1-16 5-7z" fill="#D8B472"/>
<path transform="translate(424,1154)" d="m0 0h7l1 2-1 17-29 5h-6v19l15-1 12-1 1 1v17l-2 2-21 4h-5l-1 21 29-4h7v19l-8 2-37 6h-7v-101l6-2z" fill="#D8B371"/>
<path transform="translate(1038,586)" d="m0 0h12v15l9 1-3 28-11 73-2 10h-7l-3 8-1 1h-6v-9l-8-1 2-33 5-76 1-1 10-1 1-14z" fill="#D8B36F"/>
<path transform="translate(933,586)" d="m0 0h13l2 15 9 1 2 6 6 82 1 22-7 2-1 7-1 1h-5l-2-2-3-7-6-1-6-36-9-62-1-12 9-1v-8z" fill="#D8B36F"/>
<path transform="translate(1012,1305)" d="m0 0h17l6 7 2 5 1 9v26l-2 2-32 3 1 9h10l13-2h7l1 2v13l-4 3-26 5h-8l-6-4-3-6-1-5v-45l1-10 6-8 10-3z" fill="#D8B473"/>
<path transform="translate(1077,1296)" d="m0 0h10l5 5 2 5 1 10v55l-3 2-12 1-3-4-8 7-10 3h-6l-6-5-2-4-1-14 1-16 4-6 7-5 19-4h3v-7l-1-2h-7l-17 4h-4v-16l5-3z" fill="#D8B473"/>
<path transform="translate(1496,1174)" d="m0 0h15l6 7 2 7 1 37v25l-1 2h-13l-3-4-5 2-4 3-7 2h-8l-7-6-3-9v-23l3-6 5-5 3-1 23-1-1-10h-18l-10 1-1-14 1-3 16-3z" fill="#D8B472"/>
<path transform="translate(1179,1266)" d="m0 0h6l5 5 2 8v33l-20 7-10 4-2 2v6l9-1 15-6 5-1 1 1v16l-14 7-19 7-5 1-4-2-4-9v-54l4-9 7-6 15-6z" fill="#D8B472"/>
<path transform="translate(617,1203)" d="m0 0 11 2 18 5 8 4 5 8 1 3 1 12v55l-3 1-10-4-2-2-2-4-4 2h-11l-10-5-4-5-3-11v-22l4-8 4-2 24 6v-9l-9-3-18-5-1-1z" fill="#D8B473"/>
<path transform="translate(898,1274)" d="m0 0 26 4 14 3 1 1v18l-13-1-12-2-11-1v59l3 3 32 5 1 1v17h-18l-20-3-8-4-5-8-2-11v-68l4-7 5-5z" fill="#D8B371"/>
<path transform="translate(1238,1245)" d="m0 0h6v16l-4 3-16 6-7 4h-2v7l8-1 13-4h6l4 4 2 5 1 6v12l-3 12-7 9-15 6-20 6h-5v-18l8-3 16-5 8-4 1-2v-6l-13 4-10 3h-6l-4-7-1-6v-17l3-9 5-7 12-6z" fill="#D8B473"/>
<path transform="translate(834,1179)" d="m0 0 7 1 19 5 17 3 21 4 28 5 25 3 11 1-1 7 3 5v2l10 3 19 2v1l-5 1h-26l-38-4-38-6-41-9-34-9-19-6 4-1 35 8h2l-2-1-2-7 5-3 5-2-5-2z" fill="#FDFDFD"/>
<path transform="translate(500,1180)" d="m0 0h8l7 1 1 1 1 54 1 2h15l1-1 1-53 3-1 13 3 1 1v74l-4 1-10-1-2-6-12 5h-10l-7-3-4-5-3-11-1-60z" fill="#D8B472"/>
<path transform="translate(799,1270)" d="m0 0 5 1 9 4 1 5 6-2h8l11 4 5 5 4 8 1 4v64l-10-2-6-2-1-3v-55l-5-2-12-2-1 54-7-1-8-3-1-48v-28z" fill="#D8B371"/>
<path transform="translate(1311,1193)" d="m0 0h4v20l-7 2-1 16v44h8v19l-9 4-22 8h-2v-20l7-3 1-60-8 1-1-1 1-18 5-3z" fill="#D8B472"/>
<path transform="translate(1538,1176)" d="m0 0 18 1 17 2 1 1v17l-4 1-25-2v38l1 1 27 2 1 2v14l-4 2h-30l-5-2-4-6-3-10v-50l7-9z" fill="#D8B472"/>
<path transform="translate(568,1191)" d="m0 0h7l29 7 2 2v17l-9-1-20-4v36l3 3 23 4 3 3v15l-1 1h-9l-22-4-7-4-4-6-2-9v-50l3-6z" fill="#D8B473"/>
<path transform="translate(1586,1165)" d="m0 0 9 1 5 2 1 1v16l11 2 1 1v18h-11v37l14 4 1 3v15l-1 1-13-1-9-3-7-8-2-8-1-44-6-4v-16l4-2h3z" fill="#D8B574"/>
<path transform="translate(1118,1269)" d="m0 0 5 1v13h11l1 1v11l-1 7-9 3-2 1v37l14-3 1 1v18l-12 5-11 2-3-1-4-6-1-4-1-44-5-1-1-1v-15l3-3 3-2 1-5v-8l3-4z" fill="#D8B472"/>
<path transform="translate(674,1205)" d="m0 0 7 1 7 3 1 2v14l4 3 6 2 2 3-1 17-11-1v27l1 8 4 3 9 3 1 1v18l-9-1-12-5-5-4-4-9-1-5-1-44-5-5v-15l3-2h3z" fill="#D8B472"/>
<path transform="translate(947,1306)" d="m0 0 11 1 2 1 1 7 6-3 5-4h11l1 2v18l-1 1-16 2-3 1-1 22v30h-13l-4-2v-75z" fill="#D8B472"/>
<path transform="translate(708,1237)" d="m0 0 9 3 12 5 1 1v73l-9-2-7-3-1-55-6-4v-17z" fill="#D8B575"/>
<path transform="translate(755,1272)" d="m0 0 8 1 9 4 2 2v37l-5 1-11-4-4-4v-36z" fill="#075F86"/>
<path transform="translate(460,1197)" d="m0 0h10l4 2v18l-1 16-4 2h-14l-1-1v-32l1-4z" fill="#075F86"/>
<path transform="translate(1440,1201)" d="m0 0h5l1 2v34l-4 3-4 1h-11v-34l5-3z" fill="#075F86"/>
<path transform="translate(748,658)" d="m0 0h11l7 2 1 5-7 2h-40l-2-1v-6l2-1z" fill="#D8B574"/>
<path transform="translate(1060,398)" d="m0 0h5l1 1-1 9-9 33-2 4-3 1-4-3 2-11 8-30z" fill="#D8B371"/>
<path transform="translate(990,388)" d="m0 0 5 1 1 1v46l-7 1-1-1v-46z" fill="#D8B36F"/>
<path transform="translate(768,718)" d="m0 0h5l2 2-1 5-27 8-18 4-2-2 1-5 10-4z" fill="#D8B472"/>
<path transform="translate(921,397)" d="m0 0 4 2 6 19 6 22-1 4-5 1-3-5-10-35v-6z" fill="#D8B472"/>
<path transform="translate(1212,718)" d="m0 0 11 2 30 8 4 2v6l-2 1-14-3-29-8-2-2 1-5z" fill="#D8B576"/>
<path transform="translate(1250,589)" d="m0 0h7v5l-5 3-23 7-18 4-1-7 16-6 19-5z" fill="#D8B472"/>
<path transform="translate(728,589)" d="m0 0 9 1 34 9 4 3-1 4-1 1-10-1-30-8-6-3v-5z" fill="#D8B472"/>
<path transform="translate(1220,659)" d="m0 0h45l1 1v5l-5 2h-40l-3-1v-6z" fill="#D8B472"/>
<path transform="translate(754,524)" d="m0 0h6l23 13 12 7 2 2-1 6-6-1-23-13-11-7-3-3z" fill="#D8B574"/>
<path transform="translate(1127,424)" d="m0 0 4 1-1 7-7 12-6 11-8 12-5 1-2-4 13-23 8-13z" fill="#D8B472"/>
<path transform="translate(1187,774)" d="m0 0h6l27 15 9 6 1 5-1 2-5-1-17-9-17-10-4-4z" fill="#D8B473"/>
<path transform="translate(1226,523)" d="m0 0 4 1-1 6-21 13-16 9-5-1v-5l10-7 25-14z" fill="#D8B472"/>
<path transform="translate(794,773)" d="m0 0 4 2-1 4-14 9-24 14-5-1 1-6 15-9 21-12z" fill="#D8B472"/>
<path transform="translate(855,424)" d="m0 0 5 2 8 14 10 17 4 7-2 4-5-1-9-14-6-10-6-12-1-5z" fill="#D8B472"/>
<path transform="translate(829,821)" d="m0 0 5 1-1 6-3 3h-2l-2 4-8 7-15 15-5 1-1-1v-5l28-28z" fill="#D8B471"/>
<path transform="translate(1183,467)" d="m0 0 4 1v5l-31 31-4 1-2-2 1-5 30-30z" fill="#D8B370"/>
<path transform="translate(1151,821)" d="m0 0h5l30 30 1 6-4 1-8-7-25-25z" fill="#D8B370"/>
<path transform="translate(799,467)" d="m0 0 4 1 30 30 1 4-1 2-6-1-30-30v-5z" fill="#D8B36F"/>
<path transform="translate(714,1211)" d="m0 0 5 1 10 4 1 2v17l-10-2-6-4-1-5z" fill="#D8B679"/>
<path transform="translate(1010,1323)" d="m0 0h8l3 3v10l-4 2h-12l-1-1v-11l2-2z" fill="#075F86"/>
<path transform="translate(1169,1287)" d="m0 0h5l2 2v9l-6 4-9 2-2-1 1-10 5-5z" fill="#075F86"/>
<path transform="translate(1497,1221)" d="m0 0 5 1 1 1v8l-3 2-13 1-2-3 1-7 4-2z" fill="#075F86"/>
<path transform="translate(1074,1344)" d="m0 0 4 1 1 6-5 5-5 2h-7l-2-3 1-6 5-3z" fill="#075F86"/>
<path transform="translate(867,1207)" d="m0 0 10 1 35 6 33 4 26 2 2-1 20 1v1l-5 1h-26l-38-4-38-6-19-4z" fill="#DBDCDC"/>
<path transform="translate(628,1254)" d="m0 0h7l9 3 1 1v8l-1 1h-8l-7-3-1-1z" fill="#075F86"/>
<path transform="translate(928,1152)" d="m0 0 5 1 27 11 21 8 9 4v1l-8-1-11-4-10-2-4-4-16-7-13-6z" fill="#DBDCDC"/>
<path transform="translate(1412,296)" d="m0 0 16 8 13 9 2 5v43h-1l-1-39-5-8v-2l-4-2-9-6-10-5z" fill="#FDFDFD"/>
<path transform="translate(792,1187)" d="m0 0 8 1 17 4 10 4 40 10v1l-9-1-44-11-22-7z" fill="#DBDCDC"/>
<path transform="translate(1090,1140)" d="m0 0 3 1-11 8-15 6-11 4-3-1 16-8z" fill="#DBDCDC"/>
<path transform="translate(584,289)" d="m0 0v3l-16 8-3 1-1-2 17-9z" fill="#FCFCFC"/>
<path transform="translate(562,300)" d="m0 0h2l-1 3-13 8-5 1 4-4z" fill="#FDFDFD"/>
<path transform="translate(1390,285)" d="m0 0 10 4 6 3-2 2-14-7z" fill="#FDFDFD"/>
</svg>